<svg xmlns="http://www.w3.org/2000/svg" viewBox="0 0 300 300" width="100%" height="100%">
  <rect width="300" height="300" fill="#FFFFFF" rx="16"/>
  <!-- Top Left Finder -->
  <rect x="30" y="30" width="70" height="70" rx="8" fill="#0F0E12"/>
  <rect x="42" y="42" width="46" height="46" rx="4" fill="#FFFFFF"/>
  <rect x="52" y="52" width="26" height="26" rx="2" fill="#C59B27"/>

  <!-- Top Right Finder -->
  <rect x="200" y="30" width="70" height="70" rx="8" fill="#0F0E12"/>
  <rect x="212" y="42" width="46" height="46" rx="4" fill="#FFFFFF"/>
  <rect x="222" y="52" width="26" height="26" rx="2" fill="#C59B27"/>

  <!-- Bottom Left Finder -->
  <rect x="30" y="200" width="70" height="70" rx="8" fill="#0F0E12"/>
  <rect x="42" y="212" width="46" height="46" rx="4" fill="#FFFFFF"/>
  <rect x="52" y="222" width="26" height="26" rx="2" fill="#C59B27"/>

  <!-- Simulated Data Matrix -->
  <rect x="120" y="35" width="20" height="20" fill="#0F0E12"/>
  <rect x="150" y="45" width="20" height="20" fill="#0F0E12"/>
  <rect x="120" y="75" width="20" height="20" fill="#0F0E12"/>
  <rect x="150" y="85" width="30" height="15" fill="#0F0E12"/>

  <rect x="35" y="120" width="20" height="20" fill="#0F0E12"/>
  <rect x="65" y="145" width="25" height="25" fill="#0F0E12"/>
  <rect x="110" y="120" width="80" height="80" rx="8" fill="#C59B27"/>
  <text x="150" y="168" text-anchor="middle" font-family="'Sora', sans-serif" font-weight="900" font-size="28" fill="#0F0E12">R</text>

  <rect x="210" y="120" width="20" height="30" fill="#0F0E12"/>
  <rect x="245" y="140" width="25" height="25" fill="#0F0E12"/>

  <rect x="120" y="220" width="30" height="20" fill="#0F0E12"/>
  <rect x="160" y="210" width="20" height="35" fill="#0F0E12"/>
  <rect x="200" y="220" width="30" height="20" fill="#0F0E12"/>
  <rect x="245" y="235" width="25" height="25" fill="#0F0E12"/>
</svg>
